<mxfile host="app.diagrams.net" modified="2023-10-23T15:14:24.649Z" agent="Mozilla/5.0 (Windows NT 10.0; Win64; x64) AppleWebKit/537.36 (KHTML, like Gecko) Chrome/117.0.0.0 Safari/537.36" version="21.6.9" etag="cHUpS8LHLarBCAku8aRf" type="github">
  <diagram name="Page-1" id="qmDejBXCKT99_3vjJWou">
    <mxGraphModel>
      <root>
        <mxCell id="0" />
        <mxCell id="1" parent="0" />
      </root>
    </mxGraphModel>
  </diagram>
</mxfile>
